<svg width="209" height="96" viewBox="0 0 209 96" fill="none" xmlns="http://www.w3.org/2000/svg">
<path d="M100.518 47.3163L94.7715 53.5146V59.5944L100.518 53.387V47.3163Z" fill="#32BF61"/>
<path d="M141.914 65.4645C133.504 65.4645 126.685 72.3008 126.685 80.7322C126.685 89.1637 133.504 96 141.914 96C150.324 96 157.143 89.1637 157.143 80.7322C157.143 72.3008 150.324 65.4645 141.914 65.4645ZM141.914 90.695C136.427 90.695 131.976 86.2332 131.976 80.7322C131.976 75.2313 136.427 70.7695 141.914 70.7695C147.401 70.7695 151.852 75.2313 151.852 80.7322C151.852 86.2332 147.401 90.695 141.914 90.695Z" fill="#32BF61"/>
<path d="M165.681 32.2719C168.958 32.2719 171.613 29.6103 171.613 26.3244C171.613 23.0384 168.958 20.3768 165.681 20.3768C162.403 20.3768 159.748 23.0384 159.748 26.3244C159.748 29.6103 162.403 32.2719 165.681 32.2719Z" fill="#1F753C"/>
<path d="M182.297 48.5241C180.66 48.1367 178.914 48.2507 177.419 49.1576C177.351 49.1804 177.278 49.1759 177.219 49.1667C175.759 48.8113 174.291 48.2416 172.845 47.526C172.018 47.1158 171.104 46.6282 170.304 46.1451C169.927 45.9218 169.486 45.6119 169.095 45.4524C169.122 45.4341 169.199 45.4569 169.249 45.4888C168.649 44.6411 168.127 43.7706 167.608 42.8363C166.858 41.4918 166.176 40.0562 165.549 38.5841L165.322 38.0281C164.763 36.319 163.226 34.9746 161.435 34.7604C159.853 34.5188 158.075 35.2343 157.098 36.5651C154.461 40.1018 153.216 44.2537 152.124 48.3737C151.574 50.5978 151.129 52.8538 150.952 55.1371C150.824 57.188 151.302 59.2754 152.293 61.071C153.575 63.3726 155.679 65.1637 158.075 66.1208C159.721 66.7543 161.312 67.3376 162.94 67.9484C164.544 68.5545 166.195 69.1424 167.781 69.7212C167.881 69.6666 168.072 69.7577 168.099 69.9582C168.131 69.9081 168.04 70.2226 167.99 70.4049C167.295 72.9799 166.076 77.0771 165.326 79.684L163.858 84.6335C163.803 84.8204 163.635 85.3901 163.585 85.5633C163.117 86.8348 163.481 88.357 164.467 89.2549C164.731 89.501 165.031 89.7015 165.353 89.8473C167.772 90.8728 170.218 91.6795 172.918 91.8116C174.468 91.8663 174.764 89.6195 173.259 89.264C171.363 88.749 169.472 87.7782 167.745 86.7117C169.695 82.6373 171.536 78.4353 173.245 74.2606C173.409 73.8367 173.827 72.8614 173.986 72.4421C174.75 70.7649 174.759 68.5454 173.941 66.8272C173.264 65.3187 171.995 64.0426 170.459 63.3589C168.868 62.6069 167.336 61.8686 165.763 61.144L161.644 59.2389C158.053 56.9237 160.389 49.2944 161.13 47.681C160.617 46.0448 160.457 44.477 160.444 43.1827C160.871 44.1626 161.344 45.1242 161.876 46.0631C163.099 48.0775 164.481 50.5112 166.84 51.3179L166.39 51.0991C169.745 52.7034 173.282 53.943 177.11 53.6833C178.064 53.5693 179.273 53.1136 179.942 52.3844C180.755 51.7053 182.224 51.523 183.21 51.9195C183.729 52.1793 184.361 52.1838 184.806 51.7418C186.17 50.1694 183.583 48.7976 182.297 48.5196V48.5241ZM167.331 86.452L167.204 86.3699L167.14 86.3289C167.245 86.3608 167.326 86.4201 167.395 86.493C167.372 86.4793 167.354 86.4656 167.331 86.452Z" fill="#1F753C"/>
<path d="M193.875 80.1215C194.021 80.2127 194.066 80.4086 193.975 80.5545L193.98 80.5499C193.893 80.6912 193.712 80.7413 193.566 80.6639C191.502 79.5837 189.788 77.8336 188.679 75.7782C187.611 73.8412 186.993 71.7311 186.483 69.589L186.015 67.5427C185.656 65.9157 185.297 64.3023 184.792 62.7664C184.156 60.8796 183.188 59.0611 181.492 58.0676C179.91 57.0558 181.401 54.7315 182.978 55.7751C190.539 61.349 184.947 74.534 193.875 80.1215Z" fill="#1F753C"/>
<path d="M44.574 60.2233C41.7827 60.2233 39.3097 59.5989 37.1503 58.3547C34.9909 57.1105 33.2998 55.3741 32.0769 53.1546C30.854 50.9351 30.2449 48.3464 30.2449 45.3931C30.2449 42.4398 30.845 39.7828 32.0497 37.5222C33.2544 35.2617 34.9364 33.4979 37.0958 32.2355C39.2551 30.973 41.7691 30.3395 44.6331 30.3395C47.4971 30.3395 49.8474 30.9639 51.9159 32.2081C53.9798 33.4523 55.5845 35.1113 56.7301 37.1804C57.8758 39.2495 58.4486 41.5283 58.4486 44.0167C58.4486 44.3995 58.4395 44.8143 58.4213 45.2518C58.4031 45.6939 58.3713 46.1815 58.3349 46.7193H36.2047C36.3957 49.4766 37.3049 51.5731 38.9278 53.0133C40.5508 54.4489 42.4328 55.169 44.574 55.169C46.2924 55.169 47.7335 54.7771 48.9019 53.9932C50.0656 53.2093 50.9339 52.1474 51.5113 50.8029H57.5894C56.8256 53.4827 55.3027 55.725 53.0342 57.5253C50.7566 59.3255 47.9426 60.2279 44.5786 60.2279L44.574 60.2233ZM44.574 35.3392C42.5465 35.3392 40.7508 35.9408 39.1869 37.1485C37.6186 38.3563 36.6639 40.1656 36.3184 42.5811H52.3705C52.2568 40.3616 51.4704 38.5978 50.0202 37.2943C48.57 35.9909 46.7516 35.3392 44.574 35.3392Z" fill="#214173"/>
<path d="M63.49 59.5352V31.0323H68.9362L69.4544 36.433C70.4454 34.5553 71.832 33.0695 73.6095 31.9803C75.387 30.8865 77.5373 30.3441 80.0603 30.3441V36.7247H78.3965C76.7144 36.7247 75.2142 37.0027 73.8959 37.5587C72.5775 38.1147 71.5274 39.0536 70.7409 40.3753C69.959 41.6969 69.5681 43.5291 69.5681 45.8625V59.5397H63.49V59.5352Z" fill="#214173"/>
<path d="M84.8521 59.5352V31.0323H90.2391L90.6983 36.0319C91.5802 34.2682 92.8667 32.8827 94.567 31.8663C96.2672 30.85 98.2265 30.3441 100.44 30.3441C103.882 30.3441 106.587 31.4197 108.555 33.5617C110.524 35.7083 111.506 38.9077 111.506 43.1599V59.5397H105.487V43.7934C105.487 38.2788 103.232 35.5169 98.722 35.5169C96.4672 35.5169 94.6033 36.3236 93.135 37.9324C91.662 39.5412 90.9301 41.8382 90.9301 44.828V59.5397H84.8521V59.5352Z" fill="#214173"/>
<path d="M63.7537 94.8652L53.0933 66.3623H59.4577L67.3679 89.0634L75.278 66.3623H81.5833L70.9774 94.8652H63.7537Z" fill="#32BF61"/>
<path d="M97.4537 95.5533C94.6624 95.5533 92.1893 94.929 90.03 93.6847C87.8706 92.4405 86.1795 90.7041 84.9566 88.4846C83.7337 86.2651 83.1245 83.6764 83.1245 80.7231C83.1245 77.7698 83.7246 75.1128 84.9293 72.8522C86.134 70.5917 87.816 68.8279 89.9754 67.5655C92.1348 66.3031 94.6487 65.6696 97.5128 65.6696C100.377 65.6696 102.727 66.2939 104.796 67.5381C106.859 68.7824 108.464 70.4413 109.61 72.5104C110.755 74.5795 111.328 76.8583 111.328 79.3467C111.328 79.7296 111.319 80.1443 111.301 80.5818C111.283 81.0239 111.251 81.5116 111.215 82.0494H89.0844C89.2753 84.8067 90.1845 86.9031 91.8075 88.3433C93.4304 89.7789 95.3125 90.499 97.4537 90.499C99.1721 90.499 100.613 90.1071 101.781 89.3232C102.945 88.5393 103.814 87.4774 104.391 86.1329H110.469C109.705 88.8127 108.182 91.0551 105.914 92.8553C103.636 94.6555 100.822 95.5579 97.4582 95.5579L97.4537 95.5533ZM97.4537 70.6692C95.4261 70.6692 93.6304 71.2708 92.0666 72.4785C90.4982 73.6863 89.5435 75.4956 89.198 77.9111H105.25C105.136 75.6916 104.35 73.9278 102.9 72.6244C101.45 71.3209 99.6312 70.6692 97.4537 70.6692Z" fill="#32BF61"/>
<path d="M116.229 94.8652V53.4873H122.307V94.8652H116.229Z" fill="#32BF61"/>
<path d="M13.0654 34.4869L8.76025 39.1629C16.3612 42.8272 21.6483 50.5659 21.7938 59.5351H27.9309C27.79 48.7884 21.8301 39.4272 13.0608 34.4869H13.0654Z" fill="#214173"/>
<path d="M0 59.5351V19.3057H6.07807V36.5469L21.8983 19.3057H29.4084L6.07807 44.477V59.5351H0Z" fill="#214173"/>
<path d="M35.3274 95.5534C32.918 95.5534 30.9313 95.1523 29.3629 94.3456C27.7946 93.5435 26.6308 92.477 25.867 91.1554C25.1033 89.8337 24.7214 88.3889 24.7214 86.8166C24.7214 84.0593 25.7898 81.8762 27.9309 80.2628C30.0721 78.654 33.1271 77.8519 37.1003 77.8519H44.5513V77.3323C44.5513 75.1128 43.9512 73.4448 42.7465 72.3327C41.5418 71.2207 39.9825 70.6647 38.0732 70.6647C36.3911 70.6647 34.9319 71.0748 33.6862 71.8997C32.4452 72.7247 31.6905 73.937 31.4223 75.5503H25.3488C25.5397 73.4812 26.2353 71.7083 27.44 70.2363C28.6447 68.7596 30.1721 67.6339 32.0269 66.8454C33.8817 66.0615 35.9138 65.665 38.1323 65.665C42.1055 65.665 45.1832 66.7087 47.3608 68.7961C49.5383 70.8834 50.6294 73.7273 50.6294 77.3323V94.8606H45.3559L44.8422 89.975C44.0376 91.5473 42.8738 92.869 41.3463 93.94C39.8189 95.0156 37.8095 95.5488 35.3274 95.5488V95.5534ZM36.5321 90.613C38.1732 90.613 39.5597 90.2211 40.6872 89.4372C41.8146 88.6533 42.692 87.6096 43.3239 86.3061C43.9558 85.0027 44.3467 83.5671 44.4967 81.9947H37.7322C35.3274 81.9947 33.6135 82.4185 32.6043 83.2571C31.5905 84.1003 31.0859 85.1531 31.0859 86.4155C31.0859 87.678 31.5723 88.7444 32.5497 89.4919C33.5226 90.2393 34.8546 90.613 36.5366 90.613H36.5321Z" fill="#F9AE25"/>
</svg>
