<svg width="28" height="28" viewBox="0 0 28 28" fill="none" xmlns="http://www.w3.org/2000/svg">
<path d="M26.0197 6.79537C22.9559 1.45987 16.3793 -1.20372 10.5469 0.523452L10.7838 2.60854C13.1201 2.03005 15.5936 2.10912 17.8759 3.0497C22.7979 4.9475 25.8368 10.5244 24.8141 15.6809C23.9495 20.7917 19.1729 24.708 14.0222 24.6705C13.1077 24.6705 12.3594 25.4155 12.3594 26.3353C12.3594 27.255 13.1035 28 14.0222 28C17.3272 28 20.6154 26.7764 23.1263 24.6372C28.2521 20.3838 29.5325 12.443 26.0197 6.79953V6.79537Z" fill="#1F753C"/>
<path d="M0.324578 10.7075C1.20589 7.04921 3.7542 3.98609 6.98014 2.08412L11.8878 0.21875L10.9734 2.5017L7.40832 3.9528C5.86603 4.82679 4.4817 5.99627 3.39669 7.39049C-0.357198 11.8645 0.470069 18.6441 3.95375 23.114C0.885782 19.8969 -0.735491 15.119 0.324578 10.7075Z" fill="#1F753C"/>
</svg>
