<svg width="40" height="19" viewBox="0 0 40 19" fill="none" xmlns="http://www.w3.org/2000/svg">
<path d="M33.1589 2.95049C31.2268 1.67104 28.181 2.26751 25.9943 4.47127C23.8077 6.67502 23.2258 9.72568 24.5123 11.6562C22.4848 14.5703 21.6301 17.0199 22.5393 17.926C23.9168 19.2965 28.8038 16.6056 33.4635 11.9158C38.1232 7.22596 40.7826 2.31304 39.4097 0.942526C38.5005 0.0364361 36.0547 0.906101 33.1589 2.95049Z" fill="#1F753C"/>
<path d="M19.0525 14.593C16.0476 14.593 13.1881 13.432 10.6423 11.1189L13.6973 7.745C16.8568 10.6135 20.3345 10.8002 24.335 8.31415L26.7308 12.1844C24.1396 13.7917 21.5483 14.593 19.0571 14.593H19.0525Z" fill="#1F753C"/>
<path d="M13.1835 8.642C10.5923 6.50199 8.78296 6.24701 6.4963 5.92373C4.63697 5.65965 2.5276 5.36369 0 4.0296L2.11845 0C3.94596 0.965282 5.42344 1.17473 7.12821 1.41605C9.64217 1.7712 12.4925 2.17644 16.0748 5.13147L13.1835 8.64656V8.642Z" fill="#1F753C"/>
</svg>
