<svg width="30" height="37" viewBox="0 0 30 37" fill="none" xmlns="http://www.w3.org/2000/svg">
<path d="M29.9117 15.7177L5.81309 0.582064C4.03559 -0.534533 1.69438 0.00325698 0.580599 1.78525C-0.533183 3.56725 0.00324357 5.91439 1.78075 7.03098L18.7466 17.6865C15.5144 18.8122 13.5186 21.1138 11.6866 23.2194C10.0136 25.1472 8.40889 26.9884 5.92221 28.1096L8.50891 30.361C10.9092 28.9664 12.5685 27.0614 14.0869 25.3113C16.4872 22.5494 18.4329 20.3208 22.7244 20.184L22.8335 20.2524C23.6563 23.2285 22.9017 25.4981 20.5423 27.1799L18.9603 25.0925C16.2235 27.1799 15.4507 29.1715 14.7643 30.9262C14.3006 32.1202 13.9005 33.1502 12.8958 34.3079L15.4325 36.5274C16.8236 34.9277 17.3964 33.4556 17.901 32.1521C18.5102 30.5889 18.9966 29.3493 20.8651 27.8817L22.3471 30.0374C24.4474 28.5881 25.7702 26.7195 26.2794 24.5502C26.5203 23.5202 26.5749 22.4172 26.4476 21.2642L29.9117 15.7177Z" fill="#1F753C"/>
</svg>
