<svg width="31" height="31" viewBox="0 0 31 31" fill="none" xmlns="http://www.w3.org/2000/svg">
<path d="M28.4541 7.70187C25.1036 1.85911 17.9118 -1.05772 11.5337 0.833656L11.7928 3.11699C14.3477 2.48349 17.0526 2.57008 19.5484 3.60009C24.9309 5.67832 28.254 11.7854 27.1357 17.4322C26.1901 23.0289 20.9667 27.3175 15.3342 27.2765C14.3341 27.2765 13.5158 28.0923 13.5158 29.0995C13.5158 30.1067 14.3295 30.9225 15.3342 30.9225C18.9483 30.9225 22.5442 29.5826 25.29 27.24C30.8953 22.5822 32.2955 13.8864 28.4541 7.70643V7.70187Z" fill="#1F753C"/>
<path d="M0.354943 11.9859C1.31871 7.97987 4.10542 4.62552 7.63316 2.54272L13 0.5L12 3L8.1014 4.58906C6.41482 5.54614 4.90098 6.82681 3.71447 8.35359C-0.390616 13.2529 0.514046 20.6772 4.32363 25.572C0.968651 22.049 -0.804299 16.8169 0.354943 11.9859Z" fill="#1F753C"/>
</svg>
